<svg width="54" height="62" viewBox="0 0 54 62" fill="none" xmlns="http://www.w3.org/2000/svg">
<path d="M15.75 28.4167V18.0833C15.75 14.6576 16.9353 11.3722 19.045 8.94986C21.1548 6.52752 24.0163 5.16666 27 5.16666C29.9837 5.16666 32.8452 6.52752 34.955 8.94986C37.0647 11.3722 38.25 14.6576 38.25 18.0833V28.4167M11.25 28.4167H42.75C45.2353 28.4167 47.25 30.7299 47.25 33.5833V51.6667C47.25 54.5201 45.2353 56.8333 42.75 56.8333H11.25C8.76472 56.8333 6.75 54.5201 6.75 51.6667V33.5833C6.75 30.7299 8.76472 28.4167 11.25 28.4167Z" stroke="#1E1E1E" stroke-width="4" stroke-linecap="round" stroke-linejoin="round"/>
</svg>
